<svg width="87" height="87" viewBox="0 0 87 87" fill="none" xmlns="http://www.w3.org/2000/svg">
<path d="M31.8337 2.67699L61.7195 5.29166C75.199 6.47097 85.1703 18.3543 83.991 31.8337L81.3763 61.7196C80.197 75.1991 68.3137 85.1703 54.8342 83.991L24.9484 81.3764C11.4689 80.1971 1.49764 68.3138 2.67694 54.8343L5.29162 24.9484C6.47092 11.469 18.3542 1.49769 31.8337 2.67699Z" fill="#E0E0E4" stroke="#E0E0E4"/>
<rect x="13.8337" y="13.834" width="59" height="59" rx="19.5" fill="#222222" stroke="#222222"/>
<path d="M33.7 34.8C29.4672 34.8 26 38.2672 26 42.5C26 46.7329 29.4672 50.2 33.7 50.2C36.7926 50.2 39.3875 48.3188 41.2031 46.5032C42.2531 45.4532 43.0105 44.4305 43.5 43.725C43.9895 44.4305 44.7469 45.4532 45.7969 46.5032C47.6125 48.3188 50.2074 50.2 53.3 50.2C57.5328 50.2 61 46.7329 61 42.5C61 38.2672 57.5328 34.8 53.3 34.8C50.2074 34.8 47.6125 36.6813 45.7969 38.4969C44.7551 39.5387 43.9895 40.5477 43.5 41.2532C43.0133 40.5477 42.275 39.536 41.2469 38.4969C39.4477 36.6786 36.8555 34.8 33.7 34.8ZM33.7 36.2C36.2867 36.2 38.5973 37.8215 40.2625 39.5032C41.6516 40.9059 42.4062 42.0762 42.6687 42.5C42.3953 42.9293 41.5996 44.0942 40.1969 45.4969C38.5125 47.1813 36.2074 48.8 33.7 48.8C30.2328 48.8 27.4 45.9672 27.4 42.5C27.4 39.0329 30.2328 36.2 33.7 36.2ZM53.3 36.2C56.7672 36.2 59.6 39.0329 59.6 42.5C59.6 45.9672 56.7672 48.8 53.3 48.8C50.7926 48.8 48.4875 47.1813 46.8031 45.4969C45.4004 44.0942 44.6047 42.9293 44.3312 42.5C44.6047 42.0708 45.4004 40.9059 46.8031 39.5032C48.4875 37.8188 50.7926 36.2 53.3 36.2ZM52.6 39.7V41.8H50.5V43.2H52.6V45.3H54V43.2H56.1V41.8H54V39.7H52.6ZM30.9 41.8V43.2H36.5V41.8H30.9Z" fill="#FAFAFB"/>
</svg>
