<svg width="87" height="87" viewBox="0 0 87 87" fill="none" xmlns="http://www.w3.org/2000/svg">
<path d="M31.8337 2.67699L61.7195 5.29166C75.199 6.47097 85.1703 18.3543 83.991 31.8337L81.3763 61.7196C80.197 75.1991 68.3137 85.1703 54.8342 83.991L24.9484 81.3764C11.4689 80.1971 1.49764 68.3138 2.67694 54.8343L5.29162 24.9484C6.47092 11.469 18.3542 1.49769 31.8337 2.67699Z" fill="#E0E0E4" stroke="#E0E0E4"/>
<rect x="13.8337" y="13.834" width="59" height="59" rx="19.5" fill="#222222" stroke="#222222"/>
<path d="M50.4712 41.3902C49.6232 40.7208 48.4835 40.3132 47.2396 40.3125C45.9956 40.3132 44.8552 40.7208 44.0072 41.3902C43.1438 42.072 42.5714 43.0323 42.5058 44.1224C42.4395 45.2424 42.9214 46.2844 43.7687 47.0558C44.6328 47.8404 45.8636 48.3333 47.2403 48.3333C48.6162 48.3333 49.8463 47.8404 50.7089 47.0551C51.5562 46.2844 52.0389 45.2424 51.9733 44.1217C51.9077 43.033 51.3346 42.072 50.4712 41.3902Z" fill="#FAFAFB"/>
<path d="M58.4476 43.9087C58.2587 42.5794 57.7979 41.3311 57.0906 40.1936C56.4409 39.1487 55.6067 38.2336 54.6136 37.4629L54.6151 37.4614L54.5881 37.4527C54.5677 37.4344 54.5516 37.4133 54.5305 37.3958L44.1399 29.6943C43.5128 29.1919 42.594 29.2918 42.0902 29.9226C41.587 30.5511 41.6884 31.4691 42.3184 31.9722L46.6846 35.2083H32.6562C31.6536 35.2083 30.8333 36.0286 30.8333 37.0312C30.8333 38.0338 31.6536 38.8541 32.6562 38.8541H37.8727L27.0949 48.0431C26.3307 48.6979 26.2417 49.8499 26.8972 50.6134C27.2582 51.0341 27.7686 51.2499 28.2819 51.2499C28.7019 51.2499 29.1234 51.1056 29.4676 50.811L35.9965 45.2146C35.9805 45.8031 35.9681 46.3361 35.971 46.4987C35.971 49.0624 38.8541 55.6249 47.3722 55.6249C53.4375 55.6249 58.5139 51.9791 58.5139 45.9555C58.5664 45.2744 58.5438 44.5905 58.4476 43.9087ZM53.8203 46.2573C53.5279 47.0499 53.0546 47.7915 52.4093 48.439C51.0895 49.7661 49.2426 50.5171 47.241 50.5201C45.2394 50.5237 43.391 49.7785 42.0705 48.4551C41.4252 47.8097 40.9512 47.0689 40.6581 46.2778C40.3722 45.5012 40.2607 44.6772 40.3343 43.846C40.4058 43.0322 40.6493 42.2571 41.0423 41.5557C41.4281 40.8659 41.9589 40.2432 42.613 39.7153C43.8963 38.6842 45.5289 38.1264 47.2395 38.1242C48.9502 38.122 50.582 38.6755 51.8661 39.7021C52.5202 40.2271 53.0503 40.8477 53.4353 41.536C53.8283 42.2367 54.0726 43.0111 54.1447 43.8241C54.2177 44.6568 54.1068 45.4801 53.8203 46.2573Z" fill="#FAFAFB"/>
</svg>
