<svg width="60" height="60" viewBox="0 0 60 60" fill="none" xmlns="http://www.w3.org/2000/svg">
<rect width="60" height="60" rx="30" fill="#222222"/>
<path d="M30 40.6667H42M36 18.6667C36.5304 18.1363 37.2499 17.8383 38 17.8383C38.3714 17.8383 38.7392 17.9114 39.0824 18.0536C39.4256 18.1957 39.7374 18.404 40 18.6667C40.2626 18.9293 40.471 19.2411 40.6131 19.5843C40.7553 19.9275 40.8284 20.2952 40.8284 20.6667C40.8284 21.0381 40.7553 21.4059 40.6131 21.7491C40.471 22.0922 40.2626 22.404 40 22.6667L23.3333 39.3334L18 40.6667L19.3333 35.3334L36 18.6667Z" stroke="#FAFAFB" stroke-width="4" stroke-linecap="round" stroke-linejoin="round"/>
</svg>
