<svg width="87" height="87" viewBox="0 0 87 87" fill="none" xmlns="http://www.w3.org/2000/svg">
<path d="M31.8337 2.67699L61.7195 5.29166C75.199 6.47097 85.1703 18.3543 83.991 31.8337L81.3763 61.7196C80.197 75.1991 68.3137 85.1703 54.8342 83.991L24.9484 81.3764C11.4689 80.1971 1.49764 68.3138 2.67694 54.8343L5.29162 24.9484C6.45248 11.6797 17.9852 1.81017 31.2026 2.62962L31.8337 2.67699Z" fill="#E0E0E4" stroke="#E0E0E4"/>
<rect x="13.8337" y="13.834" width="59" height="59" rx="19.5" fill="#222222" stroke="#222222"/>
<path fill-rule="evenodd" clip-rule="evenodd" d="M28.9698 23C26.2309 23 24.2043 25.3972 24.2951 27.9969C24.3821 30.4945 24.269 33.7292 23.4546 36.3672C22.6378 39.0128 21.2564 40.6888 19 40.904V43.3332C21.2564 43.5484 22.6378 45.2244 23.4546 47.8702C24.269 50.508 24.3821 53.7428 24.2951 56.2404C24.2043 58.8398 26.2309 61.2372 28.9702 61.2372H57.0338C59.7728 61.2372 61.799 58.8402 61.7082 56.2404C61.6212 53.7428 61.7342 50.508 62.5486 47.8702C63.3658 45.2244 64.7436 43.5484 67 43.3332V40.904C64.7436 40.6888 63.3658 39.0128 62.5486 36.3672C61.7342 33.7296 61.6212 30.4945 61.7082 27.9969C61.799 25.3976 59.7728 23 57.0338 23H28.9698ZM51.5424 46.5374C51.5424 50.1172 48.8722 52.2882 44.4412 52.2882H36.8983C36.6825 52.2882 36.4756 52.2024 36.323 52.0498C36.1705 51.8972 36.0847 51.6904 36.0847 51.4746V32.7627C36.0847 32.5469 36.1705 32.34 36.323 32.1874C36.4756 32.0349 36.6825 31.9492 36.8983 31.9492H44.3982C48.0928 31.9492 50.5176 33.9505 50.5176 37.0233C50.5176 39.18 48.8866 41.111 46.8082 41.449V41.5618C49.6374 41.8722 51.5424 43.8312 51.5424 46.5374ZM43.6188 34.5281H39.3178V40.603H42.9402C45.7404 40.603 47.2846 39.4754 47.2846 37.4598C47.2846 35.5711 45.9568 34.5281 43.6188 34.5281ZM39.3178 43.0136V49.7084H43.777C46.6924 49.7084 48.2368 48.5384 48.2368 46.3398C48.2368 44.1408 46.6492 43.0132 43.5894 43.0132L39.3178 43.0136Z" fill="white"/>
</svg>
