<svg width="87" height="87" viewBox="0 0 87 87" fill="none" xmlns="http://www.w3.org/2000/svg">
<path d="M31.8337 2.67699L61.7195 5.29166C75.199 6.47097 85.1703 18.3543 83.991 31.8337L81.3763 61.7196C80.197 75.1991 68.3137 85.1703 54.8342 83.991L24.9484 81.3764C11.4689 80.1971 1.49764 68.3138 2.67694 54.8343L5.29162 24.9484C6.45248 11.6797 17.9852 1.81017 31.2026 2.62962L31.8337 2.67699Z" fill="#E0E0E4" stroke="#E0E0E4"/>
<rect x="13.8337" y="13.834" width="59" height="59" rx="19.5" fill="#222222" stroke="#222222"/>
<path d="M29.6193 28.0354C29.9634 28.0325 29.9634 28.0325 30.3145 28.0296C31.0716 28.0245 31.8287 28.0256 32.5858 28.0272C33.1129 28.0259 33.64 28.0244 34.1671 28.0227C35.2715 28.0202 36.3759 28.0209 37.4803 28.0237C38.8947 28.0269 40.3089 28.0213 41.7233 28.0131C42.8117 28.008 43.9002 28.0081 44.9886 28.0097C45.5101 28.0097 46.0315 28.008 46.5529 28.0046C47.2824 28.0004 48.0117 28.0034 48.7412 28.0082C48.956 28.0055 49.1707 28.0028 49.392 28C50.971 28.0216 51.881 28.5045 53.018 29.786C53.3834 30.5637 53.3152 31.1828 53.2963 32.0512C53.4811 31.9414 53.6658 31.8316 53.8562 31.7185C54.5408 31.3123 55.2259 30.9072 55.9113 30.5027C56.2081 30.3273 56.5047 30.1515 56.8011 29.9753C57.2267 29.7224 57.6531 29.471 58.0795 29.2197C58.4642 28.9919 58.4642 28.9919 58.8567 28.7595C59.4806 28.4268 59.4806 28.4268 59.9753 28.4268C59.9753 30.4509 59.9753 32.475 59.9753 34.5603C59.5477 34.8098 59.1201 35.0592 58.6795 35.3161C54.7002 37.6381 54.7002 37.6381 50.7299 39.9794C50.5432 40.09 50.3566 40.2006 50.1643 40.3146C49.3103 40.8221 48.4588 41.334 47.6116 41.8559C47.4608 41.9486 47.3099 42.0413 47.1545 42.1369C46.7581 42.3814 46.3625 42.6277 45.967 42.8741C45.3805 43.203 45.3805 43.203 44.8857 43.203C44.8857 43.387 44.8857 43.571 44.8857 43.7606C45.0259 43.7942 45.166 43.8279 45.3104 43.8625C45.9196 44.0533 46.4322 44.3195 46.9971 44.6395C47.3245 44.8242 47.3245 44.8242 47.6584 45.0127C48.0079 45.2123 48.0079 45.2123 48.3644 45.416C48.6061 45.5532 48.8478 45.6904 49.0969 45.8318C51.2338 47.0491 53.3556 48.2976 55.4691 49.5655C56.0208 49.8962 56.5732 50.2253 57.1257 50.5541C57.4675 50.758 57.8093 50.962 58.151 51.1661C58.3078 51.2594 58.4647 51.3528 58.6263 51.4489C59.6995 52.0924 59.6995 52.0924 59.9753 52.4033C59.9968 52.859 60.0018 53.3158 59.9995 53.7722C59.9987 54.048 59.9979 54.3239 59.9971 54.608C59.995 54.8982 59.9929 55.1884 59.9908 55.4874C59.9897 55.7787 59.9886 56.07 59.9874 56.3701C59.9845 57.0924 59.9804 57.8146 59.9753 58.5368C59.1616 58.1828 58.3871 57.7928 57.6156 57.3345C57.3086 57.1523 57.3086 57.1523 56.9953 56.9664C56.7848 56.8406 56.5744 56.7148 56.3575 56.5852C56.1452 56.4594 55.9328 56.3336 55.714 56.204C54.8824 55.7091 54.0797 55.2222 53.2963 54.6336C53.3167 54.8751 53.3371 55.1166 53.3582 55.3655C53.2792 56.5664 53.0043 57.0722 52.3068 57.9792C50.9385 58.8077 49.8228 58.9364 48.2865 58.9238C48.0638 58.9253 47.8412 58.9267 47.6118 58.9282C46.8802 58.9319 46.1488 58.9295 45.4172 58.9267C44.9068 58.9272 44.3965 58.928 43.8861 58.9291C42.8186 58.9303 41.7511 58.9285 40.6836 58.9246C39.3158 58.9198 37.9481 58.9226 36.5803 58.9276C35.5273 58.9306 34.4743 58.9297 33.4213 58.9275C32.9169 58.9269 32.4126 58.9276 31.9082 58.9296C31.2036 58.9317 30.4992 58.9285 29.7946 58.9238C29.5866 58.9255 29.3787 58.9272 29.1644 58.9289C28.0134 58.9148 27.2718 58.8099 26.333 57.9792C25.3137 56.7028 25.0643 55.8384 25.072 54.1425C25.0728 53.8307 25.0736 53.5189 25.0744 53.1977C25.0765 52.8723 25.0785 52.5469 25.0807 52.2116C25.0823 51.7186 25.0823 51.7186 25.084 51.2157C25.087 50.4034 25.091 49.5912 25.0961 48.7789C33.1891 43.7606 33.1891 43.7606 34.0014 43.7606C34.0014 43.5766 34.0014 43.3926 34.0014 43.203C33.8034 43.1383 33.6054 43.0736 33.4014 43.007C32.2907 42.5528 31.2838 41.9503 30.2445 41.3211C30.0498 41.2047 29.8552 41.0883 29.6546 40.9683C28.1288 40.0534 26.6122 39.1197 25.0961 38.1847C25.0673 36.965 25.0498 35.7455 25.0343 34.5255C25.026 34.1805 25.0177 33.8355 25.0092 33.48C24.9818 30.6133 24.9818 30.6133 25.5174 29.6313C26.8178 28.1507 27.8476 28.0251 29.6193 28.0354Z" fill="white"/>
<path d="M28.5591 33.724C35.7427 33.724 42.9263 33.724 50.3277 33.724C49.5153 34.6395 48.6742 35.1378 47.6626 35.7104C47.4744 35.8186 47.2863 35.9268 47.0924 36.0383C46.4914 36.3836 45.8895 36.7266 45.2875 37.0695C44.6874 37.4128 44.0876 37.7565 43.4879 38.1007C43.1151 38.3145 42.7421 38.5277 42.3687 38.7403C41.6334 39.1608 40.9253 39.5803 40.2278 40.0781C39.6907 40.4151 39.6907 40.4151 39.0047 40.2659C38.0072 39.7555 37.0382 39.2039 36.073 38.6203C35.8716 38.4998 35.6703 38.3793 35.4629 38.2551C33.1488 36.8644 30.8525 35.4364 28.5591 34.0028C28.5591 33.9108 28.5591 33.8188 28.5591 33.724Z" fill="#222222"/>
<path d="M40.6666 47.0795C40.8332 47.1807 40.9997 47.2818 41.1713 47.386C41.36 47.4996 41.5488 47.6131 41.7432 47.7301C41.9435 47.8519 42.1438 47.9738 42.3502 48.0993C44.0758 49.1377 45.8096 50.1497 47.5659 51.1204C48.4288 51.6001 49.274 52.0893 50.0805 52.682C50.0805 52.774 50.0805 52.866 50.0805 52.9608C43.0601 52.9608 36.0397 52.9608 28.8066 52.9608C29.4375 52.2498 29.7728 51.9487 30.5382 51.5309C30.7351 51.422 30.932 51.313 31.1349 51.2007C31.3462 51.0858 31.5574 50.9709 31.7751 50.8524C33.1405 50.1009 34.499 49.3437 35.8335 48.5241C36.0452 48.3945 36.257 48.265 36.4751 48.1315C36.881 47.8817 37.2856 47.6292 37.6888 47.374C37.8724 47.2615 38.0561 47.149 38.2454 47.0332C38.4056 46.9326 38.5658 46.8321 38.7309 46.7286C39.4809 46.4384 39.9712 46.7149 40.6666 47.0795Z" fill="#222222"/>
</svg>
