<svg width="87" height="87" viewBox="0 0 87 87" fill="none" xmlns="http://www.w3.org/2000/svg">
<path d="M4.79352 24.9049C5.99689 11.1503 18.1227 0.975524 31.8773 2.17889L61.7631 4.79357C75.5177 5.99694 85.6925 18.1227 84.4891 31.8773L81.8744 61.7632C80.6711 75.5178 68.5452 85.6925 54.7907 84.4891L24.9048 81.8745C11.1502 80.6711 0.975476 68.5453 2.17885 54.7907L4.79352 24.9049Z" fill="#E0E0E4"/>
<rect x="13.3337" y="13.334" width="60" height="60" rx="20" fill="#222222"/>
<path d="M49.2403 42.2292L42.5896 33.4792H43.45C44.0625 33.4792 44.6393 33.765 45.0097 34.2528L50.1569 41.0246L55.3041 34.2528C55.6738 33.765 56.2505 33.4792 56.863 33.4792H57.7235L51.0727 42.2292L58.0341 51.3875H57.1737C56.5612 51.3875 55.9844 51.1017 55.614 50.6139L50.1562 43.4338L44.6984 50.6139C44.3279 51.101 43.7512 51.3875 43.1387 51.3875H42.2783L49.2403 42.2292ZM27.9166 42.9583V43.5293C27.9166 46.5911 29.9408 49.386 32.9245 50.0714C36.1613 50.8151 39.1151 49.1621 40.3824 46.5407C40.5793 46.1339 40.9891 45.875 41.4404 45.875H42.19C41.2283 49.2693 38.095 51.7514 34.3828 51.7076C29.9415 51.6551 26.4583 47.8394 26.4583 43.0619V42.9583V41.5V40.9779C26.4583 37.0207 29.2378 33.4872 33.1454 32.8579C38.165 32.0493 42.4999 35.9037 42.4999 40.7708V42.9583H27.9166ZM27.9166 41.5H41.0416V40.7708C41.0416 36.6525 37.2485 33.4208 32.9653 34.3775C29.9612 35.0491 27.9166 37.8556 27.9166 41.2886V41.5Z" fill="#FAFAFB"/>
</svg>
