<svg width="18" height="18" viewBox="0 0 18 18" fill="none" xmlns="http://www.w3.org/2000/svg">
<g clip-path="url(#clip0_36_410)">
<rect width="18" height="18" fill="#FAFAFB"/>
<path d="M4.28206 0.0387707C3.69495 0.109083 3.00237 0.337599 2.47502 0.636427C1.11096 1.42041 0.210962 2.78447 0.0386963 4.33486C-0.0140381 4.80244 -0.0140381 13.1978 0.0386963 13.6653C0.288306 15.9259 2.07424 17.7118 4.33479 17.9614C4.80237 18.0142 13.1977 18.0142 13.6653 17.9614C15.9258 17.7118 17.7117 15.9259 17.9614 13.6653C18.0141 13.1978 18.0141 4.80244 17.9614 4.33486C17.7117 2.07432 15.9258 0.28838 13.6653 0.0387707C13.2504 -0.0069313 4.68635 -0.0069313 4.28206 0.0387707ZM14.0309 1.16729C14.7621 1.36768 15.3246 1.6876 15.8168 2.1833C16.3125 2.67549 16.6324 3.23799 16.8364 3.96924L16.9278 4.30674V9.0001V13.6935L16.8364 14.031C16.6324 14.7622 16.3125 15.3247 15.8168 15.8169C15.3246 16.3126 14.7621 16.6325 14.0309 16.8364L13.6934 16.9278H9.00002H4.30667L3.96917 16.8364C3.23792 16.6325 2.67542 16.3126 2.18323 15.8169C1.68752 15.3247 1.3676 14.7622 1.1637 14.031L1.07229 13.6935V9.0001V4.30674L1.1637 3.96924C1.3676 3.23799 1.68752 2.67549 2.17971 2.1833C2.76331 1.59971 3.53323 1.21299 4.34182 1.09346C4.45784 1.07588 6.6094 1.06533 9.12307 1.06885L13.6934 1.07236L14.0309 1.16729Z" fill="#222222"/>
<path d="M13.8692 2.34512C13.0114 2.46465 12.4278 3.29785 12.6352 4.10645C12.7793 4.67949 13.1449 5.0416 13.7145 5.18926C14.6813 5.43535 15.6305 4.55996 15.4688 3.57207C15.3809 3.02012 14.9766 2.55605 14.4492 2.39785C14.2946 2.35215 14.0098 2.32754 13.8692 2.34512ZM14.2629 3.4666C14.4528 3.58613 14.4844 3.87793 14.3262 4.04316C14.1961 4.17676 14.0379 4.2084 13.8762 4.13105C13.6301 4.01504 13.5774 3.6916 13.7742 3.50879C13.9184 3.37168 14.0871 3.35762 14.2629 3.4666Z" fill="#222222"/>
<path d="M8.3215 4.13101C6.37736 4.39819 4.73556 5.86069 4.23986 7.77671C3.80392 9.45366 4.2926 11.2255 5.53361 12.4666C7.46721 14.4001 10.5328 14.4001 12.4664 12.4666C14.4 10.533 14.4 7.46733 12.4664 5.53374C11.3555 4.42632 9.86838 3.92007 8.3215 4.13101ZM9.56252 5.18569C10.4063 5.31226 11.1235 5.67437 11.7246 6.27554C13.2399 7.78726 13.2399 10.213 11.7246 11.7248C10.2129 13.24 7.78713 13.24 6.27541 11.7248C4.76017 10.213 4.76017 7.78726 6.27541 6.27554C7.1508 5.40015 8.35314 4.99936 9.56252 5.18569Z" fill="#222222"/>
</g>
<defs>
<clipPath id="clip0_36_410">
<rect width="18" height="18" fill="white"/>
</clipPath>
</defs>
</svg>
