<svg width="18" height="18" viewBox="0 0 18 18" fill="none" xmlns="http://www.w3.org/2000/svg">
<path d="M3.96027 0.0605412C3.2951 0.164335 2.52611 0.479561 1.96476 0.875513C1.82634 0.975462 1.55335 1.2138 1.36495 1.40217C0.815124 1.95573 0.446011 2.56312 0.211471 3.30889C0 3.98932 0 3.97009 0 8.99831C0 14.0688 0 14.015 0.22685 14.73C0.465236 15.4643 0.834348 16.064 1.4034 16.6291C2.11086 17.3364 3.01057 17.79 3.99872 17.9399C4.54854 18.0207 13.4572 18.0207 14.0071 17.9361C16.0295 17.6324 17.6328 16.0255 17.9366 13.9996C18.0212 13.4537 18.0212 4.54288 17.9366 3.997C17.6328 1.97111 16.0295 0.364235 14.0071 0.0605412C13.4803 -0.0201855 4.47164 -0.0201855 3.96027 0.0605412ZM14.2839 0.898579C15.6681 1.27531 16.7177 2.32862 17.1022 3.71253L17.206 4.09695V8.99831V13.8997L17.1022 14.2841C16.7177 15.668 15.6681 16.7175 14.2839 17.1019L13.8994 17.2057H9.01634H4.13329L3.79494 17.1211C2.93752 16.902 2.19161 16.4407 1.67254 15.8025C1.23807 15.272 0.945851 14.6339 0.830503 13.9612C0.776674 13.6421 0.768984 13.0578 0.768984 8.99831C0.768984 4.93883 0.776674 4.35452 0.830503 4.03545C1.11118 2.39782 2.38001 1.12154 4.01794 0.833227C4.27555 0.787096 5.12144 0.779408 9.11247 0.783253L13.8994 0.790941L14.2839 0.898579Z" fill="#222222"/>
<path d="M4.03726 2.83234C2.85303 3.14756 2.45315 4.65449 3.32211 5.52328C4.24873 6.44589 5.82515 5.93461 6.04815 4.63911C6.24425 3.50123 5.16382 2.53249 4.03726 2.83234ZM4.84854 3.64731C5.46373 3.97022 5.44835 4.83132 4.82162 5.13886C4.06802 5.5079 3.30673 4.65833 3.75274 3.93947C3.895 3.70497 4.18721 3.53967 4.4602 3.53967C4.58708 3.53967 4.70628 3.57427 4.84854 3.64731Z" fill="#222222"/>
<path d="M11.2923 6.63385C10.9078 6.70689 10.4503 6.88372 10.1542 7.07593L9.91966 7.2297V7.07208C9.91966 6.87603 9.83892 6.71842 9.70819 6.66076C9.63898 6.62616 9.23142 6.61462 8.30095 6.61462C6.87449 6.61462 6.82066 6.62231 6.73222 6.83374C6.70146 6.91447 6.68993 7.89859 6.69762 10.6318L6.70915 14.3222L6.81681 14.5414C6.93985 14.7912 7.15901 15.0065 7.41662 15.1257C7.58195 15.1987 7.66654 15.2064 8.58932 15.2179C9.30063 15.2256 9.61592 15.2179 9.69666 15.1833C9.92351 15.0911 9.91966 15.1449 9.91966 12.5462C9.91966 9.813 9.89275 10.0167 10.2926 9.82069C10.5002 9.71689 10.5502 9.70921 10.9578 9.70921C11.5538 9.70921 11.6691 9.75534 12.0113 10.1321C12.1536 10.2935 12.2651 10.4319 12.2535 10.4434C12.2151 10.4819 12.0267 10.3627 11.9767 10.2705C11.9306 10.182 11.9229 10.4934 11.919 12.5462C11.919 15.1257 11.9152 15.0834 12.1305 15.1795C12.2728 15.2449 14.795 15.2449 14.9373 15.1795C15.1526 15.0796 15.1488 15.1603 15.1488 12.1387C15.1488 8.97496 15.1564 9.07491 14.8219 8.40218C14.4067 7.57183 13.6915 6.97598 12.7841 6.71073C12.3458 6.58387 11.7306 6.55312 11.2923 6.63385ZM12.5727 7.44497C13.2609 7.64871 13.8261 8.12155 14.1414 8.752C14.3836 9.22868 14.3798 9.20177 14.3798 11.9542V14.4568H13.5339H12.688V12.158V9.86297L12.5957 9.67076C12.3573 9.1518 11.6922 8.87886 10.804 8.93268C10.0273 8.97881 9.49288 9.27866 9.25065 9.80147C9.17375 9.97446 9.1699 10.0321 9.15837 12.2156L9.14683 14.4568H8.47397C7.94722 14.4568 7.77804 14.4453 7.68961 14.3991C7.44738 14.2761 7.45891 14.4453 7.45891 10.7471V7.38346H8.3048H9.15068V7.76788C9.15068 8.19075 9.19297 8.32529 9.34677 8.40602C9.57362 8.52135 9.65052 8.48675 10.1234 8.06773C10.5156 7.7256 10.9309 7.49879 11.3615 7.40653C11.6883 7.33349 12.2651 7.35271 12.5727 7.44497Z" fill="#222222"/>
<path d="M3.04146 6.66844C2.84153 6.77993 2.84921 6.60694 2.84537 10.9124C2.84537 15.2679 2.83768 15.0796 3.05684 15.1795C3.1991 15.2449 5.72137 15.2449 5.86363 15.1795C6.08279 15.0796 6.0751 15.2679 6.0751 10.924C6.0751 7.90628 6.06357 6.90294 6.02897 6.82606C5.93669 6.62231 5.88286 6.61462 4.45255 6.61462C3.43364 6.61847 3.11451 6.63 3.04146 6.66844ZM5.30612 10.9201V14.4568H4.46024H3.61435V10.9201V7.38347H4.46024H5.30612V10.9201Z" fill="#222222"/>
</svg>
