<svg width="65" height="65" viewBox="0 0 65 65" fill="#000" xmlns="http://www.w3.org/2000/svg">
<path d="M26.0365 0C26.0365 19.6915 26.0365 39.3829 26.0365 59.6711C30.1989 59.6711 34.3613 59.6711 38.6499 59.6711C38.6499 39.9796 38.6499 20.2882 38.6499 0C40.8111 0.480279 40.8111 0.480279 43.0161 0.970262C43.0161 21.3021 43.0161 41.6339 43.0161 62.5819C39.1154 63.6457 36.2399 64.269 32.3432 64.2192C31.9029 64.2248 31.4627 64.2304 31.0091 64.2362C27.5104 64.2213 25.2288 63.5524 21.6703 62.5819C21.6703 42.25 21.6703 21.9182 21.6703 0.970262C25.0662 0 25.0662 0 26.0365 0Z" fill="#000"/>
<path d="M18.2744 2.9108C18.3731 6.36309 18.4409 9.81501 18.4876 13.2684C18.5071 14.442 18.5335 15.6156 18.5672 16.7889C18.6145 18.4799 18.6363 20.1697 18.6534 21.8612C18.6734 22.3824 18.6935 22.9035 18.7141 23.4405C18.7158 26.3512 18.4026 27.8508 16.3102 29.9549C15.6836 30.4958 15.0485 31.0276 14.3934 31.5335C14.6073 31.7847 14.8213 32.0358 15.0417 32.2946C15.552 32.8937 16.0623 33.4928 16.5727 34.0918C17.117 34.7152 17.6892 35.3145 18.2744 35.8997C18.3911 36.9557 18.3911 36.9557 18.3846 38.2811C18.3845 38.7763 18.3844 39.2716 18.3843 39.7819C18.3793 40.3181 18.3743 40.8543 18.3692 41.4067C18.3678 41.9545 18.3664 42.5023 18.365 43.0667C18.3596 44.8216 18.3474 46.5763 18.335 48.3312C18.3302 49.5187 18.3258 50.7063 18.3218 51.8938C18.3111 54.8097 18.2948 57.7255 18.2744 60.6414C16.6234 60.1277 15.3571 59.6667 13.9082 58.7008C13.7344 57.7934 13.7344 57.7934 13.7447 56.6774C13.7445 56.2595 13.7442 55.8416 13.744 55.4111C13.7501 54.9583 13.7561 54.5055 13.7623 54.039C13.7586 53.0827 13.7545 52.1263 13.75 51.1699C13.7511 49.6603 13.7566 48.1509 13.77 46.6413C13.7801 45.1854 13.7723 43.7305 13.7623 42.2746C13.7713 41.8258 13.7803 41.3769 13.7895 40.9145C13.7642 38.6728 13.6327 37.2818 12.0505 35.6166C10.2884 34.2736 9.36697 34.0645 7.17704 34.0198C6.61796 34.001 6.05889 33.9823 5.48287 33.963C5.06137 33.9617 4.63988 33.9605 4.20561 33.9592C5.84339 41.7355 5.84339 41.7355 9.868 48.4828C10.7581 49.8651 10.6563 50.8893 10.6033 52.5154C10.5901 53.0382 10.577 53.561 10.5635 54.0997C10.5466 54.4974 10.5297 54.8951 10.5123 55.3049C5.25147 51.3325 1.26259 44.4064 0.324565 37.8402C-0.720752 28.5932 0.6432 20.1857 6.11202 12.4087C7.43712 10.7586 8.82184 9.51509 10.5123 8.24724C10.8543 11.9904 10.7069 14.2663 8.40692 17.2676C5.94046 20.8426 4.84794 25.346 4.20561 29.593C5.19629 29.5901 6.18691 29.5656 7.17704 29.5324C8.00439 29.5155 8.00439 29.5155 8.84846 29.4982C10.9909 28.9956 12.2413 28.0168 13.4231 26.1971C13.8031 24.5592 13.7506 22.9854 13.6941 21.3117C13.6912 20.3572 13.6884 19.4027 13.6856 18.4482C13.6632 16.9513 13.6352 15.4545 13.6047 13.9577C13.5801 12.5075 13.5757 11.0582 13.5728 9.60788C13.5568 9.16011 13.5407 8.71235 13.5242 8.25101C13.5244 7.02683 13.5519 6.02309 13.9082 4.85132C15.1355 3.6561 16.5181 2.9108 18.2744 2.9108Z" fill="#000"/>
<path d="M46.412 2.9108C49.3228 3.88106 49.3228 3.88106 50.7781 4.85132C50.9572 5.8117 50.9572 5.8117 50.9532 7.01233C50.9552 7.46677 50.9572 7.9212 50.9592 8.3894C50.954 8.88945 50.9488 9.38949 50.9434 9.90469C50.9436 10.4301 50.9438 10.9554 50.944 11.4967C50.943 13.2398 50.9317 14.9826 50.9203 16.7257C50.9176 17.9316 50.9155 19.1375 50.914 20.3435C50.909 23.1973 50.8976 26.051 50.883 28.9048C50.8651 32.472 50.8573 36.0392 50.8492 39.6064C50.8336 45.9713 50.809 52.336 50.7781 58.7008C47.5035 60.6414 47.5035 60.6414 46.412 60.6414C46.412 41.5903 46.412 22.5392 46.412 2.9108Z" fill="#000"/>
<path d="M54.1741 8.24722C60.7201 13.3238 63.6754 20.5663 64.8469 28.6227C65.7141 37.2308 62.8511 45.8113 57.4146 52.468C56.4273 53.5541 55.378 54.4658 54.1741 55.3049C53.7195 51.1706 54.2733 48.8485 56.6869 45.4772C60.6229 39.5478 60.8624 31.6104 59.664 24.7966C58.5825 21.0763 56.9536 16.8483 54.1741 14.0688C54.0793 12.7006 54.0793 12.7006 54.1134 11.0974C54.1222 10.5658 54.1309 10.0342 54.14 9.48658C54.1512 9.07759 54.1625 8.6686 54.1741 8.24722Z" fill="#000"/>
</svg>
