<svg width="87" height="87" viewBox="0 0 87 87" fill="none" xmlns="http://www.w3.org/2000/svg">
<path d="M31.8337 2.67699L61.7195 5.29166C75.199 6.47097 85.1703 18.3543 83.991 31.8337L81.3763 61.7196C80.197 75.1991 68.3137 85.1703 54.8342 83.991L24.9484 81.3764C11.4689 80.1971 1.49764 68.3138 2.67694 54.8343L5.29162 24.9484C6.47092 11.469 18.3542 1.49769 31.8337 2.67699Z" fill="#E0E0E4" stroke="#E0E0E4"/>
<rect x="13.8337" y="13.834" width="59" height="59" rx="19.5" fill="#222222" stroke="#222222"/>
<path fill-rule="evenodd" clip-rule="evenodd" d="M55.343 49.976C55.4951 49.8887 55.6215 49.7628 55.7096 49.6112C55.7977 49.4595 55.8444 49.2874 55.845 49.112L55.863 43.325C55.8635 43.1496 55.9102 42.9775 55.9983 42.8258C56.0864 42.6741 56.2129 42.5483 56.365 42.461L59.502 40.659C59.654 40.5717 59.8263 40.5259 60.0017 40.5262C60.177 40.5265 60.3492 40.5729 60.5009 40.6607C60.6526 40.7485 60.7786 40.8747 60.8662 41.0266C60.9538 41.1784 60.9999 41.3507 61 41.526V52.047C60.9999 52.2229 60.9535 52.3957 60.8654 52.5479C60.7772 52.7001 60.6505 52.8264 60.498 52.914L48.659 59.714C48.5078 59.8008 48.3365 59.8466 48.1621 59.8467C47.9877 59.8469 47.8164 59.8015 47.665 59.715L38.374 54.401C38.2209 54.3136 38.0937 54.1872 38.0052 54.0348C37.9167 53.8824 37.87 53.7093 37.87 53.533V48.228C37.87 48.222 37.877 48.218 37.883 48.221C37.888 48.224 37.895 48.221 37.895 48.214V48.208C37.895 48.204 37.897 48.2 37.901 48.198L45.553 43.802C45.56 43.798 45.557 43.787 45.549 43.787C45.5469 43.787 45.5448 43.7862 45.5433 43.7847C45.5418 43.7832 45.541 43.7811 45.541 43.779L45.556 38.578C45.5567 38.4021 45.511 38.2292 45.4235 38.0766C45.336 37.924 45.2098 37.7972 45.0577 37.709C44.9056 37.6207 44.7328 37.5742 44.557 37.574C44.3811 37.5738 44.2083 37.6201 44.056 37.708L38.369 40.985C38.2172 41.0724 38.0451 41.1184 37.87 41.1184C37.6948 41.1184 37.5228 41.0724 37.371 40.985L31.666 37.7C31.514 37.6125 31.3417 37.5665 31.1663 37.5666C30.9909 37.5667 30.8186 37.613 30.6667 37.7007C30.5149 37.7884 30.3888 37.9146 30.301 38.0665C30.2133 38.2183 30.1671 38.3906 30.167 38.566V47.966C30.1671 48.1412 30.1212 48.3134 30.0338 48.4652C29.9465 48.6171 29.8208 48.7434 29.6693 48.8314C29.5178 48.9194 29.3458 48.966 29.1706 48.9667C28.9954 48.9673 28.8231 48.9219 28.671 48.835L25.505 47.025C25.3516 46.9374 25.2242 46.8108 25.1357 46.6579C25.0472 46.5051 25.0007 46.3316 25.001 46.155L25.029 29.725C25.0294 29.5498 25.0757 29.3779 25.1635 29.2263C25.2512 29.0747 25.3772 28.9488 25.5289 28.8612C25.6806 28.7736 25.8526 28.7274 26.0278 28.7272C26.2029 28.727 26.3751 28.7728 26.527 28.86L37.372 35.089C37.5235 35.176 37.6952 35.2218 37.87 35.2218C38.0447 35.2218 38.2164 35.176 38.368 35.089L49.21 28.86C49.3621 28.7726 49.5345 28.7268 49.7099 28.7272C49.8853 28.7275 50.0576 28.774 50.2093 28.8619C50.3611 28.9499 50.4871 29.0762 50.5746 29.2282C50.6621 29.3802 50.7081 29.5526 50.708 29.728V46.162C50.708 46.3378 50.6618 46.5105 50.5738 46.6627C50.4859 46.8149 50.3593 46.9413 50.207 47.029L44.529 50.299C44.3765 50.3869 44.2499 50.5135 44.162 50.6661C44.0741 50.8186 44.028 50.9916 44.0284 51.1677C44.0288 51.3437 44.0757 51.5165 44.1643 51.6686C44.2529 51.8207 44.3801 51.9468 44.533 52.034L47.665 53.817C47.8163 53.9032 47.9876 53.9483 48.1617 53.948C48.3359 53.9476 48.507 53.9018 48.658 53.815L55.343 49.976ZM56 35.234C56.0001 35.4108 56.0472 35.5845 56.1363 35.7372C56.2254 35.89 56.3535 36.0163 56.5074 36.1035C56.6613 36.1906 56.8355 36.2353 57.0124 36.2331C57.1892 36.2309 57.3623 36.1819 57.514 36.091L60.514 34.291C60.6621 34.2023 60.7847 34.0767 60.8698 33.9265C60.955 33.7763 60.9998 33.6066 61 33.434V29.766C60.9997 29.5892 60.9525 29.4157 60.8633 29.2631C60.7741 29.1105 60.646 28.9843 60.4921 28.8973C60.3383 28.8103 60.1641 28.7656 59.9873 28.7679C59.8106 28.7701 59.6376 28.8191 59.486 28.91L56.486 30.71C56.3379 30.7987 56.2153 30.9243 56.1301 31.0745C56.0449 31.2247 56.0001 31.3943 56 31.567V35.234Z" fill="white"/>
</svg>
