<svg width="87" height="87" viewBox="0 0 87 87" fill="none" xmlns="http://www.w3.org/2000/svg">
<path d="M31.8337 2.67699L61.7195 5.29166C75.199 6.47097 85.1703 18.3543 83.991 31.8337L81.3763 61.7196C80.197 75.1991 68.3137 85.1703 54.8342 83.991L24.9484 81.3764C11.4689 80.1971 1.49764 68.3138 2.67694 54.8343L5.29162 24.9484C6.47092 11.469 18.3542 1.49769 31.8337 2.67699Z" fill="#E0E0E4" stroke="#E0E0E4"/>
<rect x="13.8337" y="13.834" width="59" height="59" rx="19.5" fill="#222222" stroke="#222222"/>
<g clip-path="url(#clip0_44_211)">
<path d="M25.5104 24.5104C24.6354 25.3125 24.9271 26.8437 26.2396 28.8854C28.5729 32.3854 30.6146 38.2917 30.0312 39.75C29.0833 42.1562 29.3021 46.2396 30.5417 47.9167C31.8542 49.8125 33.6042 50.0312 34.2604 48.3542C34.625 47.4792 35.2812 47.9167 37.3958 50.3958C38.9271 52.0729 40.3854 53.3125 40.6771 53.0208C40.9687 52.7292 40.2396 51.4167 39.0729 50.0312C37.9062 48.7187 36.5208 46.6042 36.0104 45.2917C34.7708 42.3021 33.8958 42.3021 33.6042 45.2917C33.4583 46.6042 33.0937 47.6979 32.6562 47.625C31.2708 47.5521 30.5417 43.7604 31.3437 40.6979C32 38.2917 31.8542 37.3437 30.7604 35.0833C29.9583 33.625 29.375 32.0208 29.375 31.4375C29.375 30.8542 28.7187 29.4687 27.8437 28.2292C25.9479 25.5312 26.3125 25.0937 29.4479 26.4792C30.8333 27.0625 33.5312 28.0833 35.5 28.8125C40.4583 30.5625 44.1042 34.0625 47.3854 40.4062C49.2083 43.9792 50.8125 46.0937 51.9792 46.6042C53 47.0417 54.75 48.1354 55.9167 49.0833L58.1042 50.7604L55.4062 51.2708C53.9479 51.5625 52.7083 52.1458 52.7083 52.5833C52.7083 53.3854 58.5417 59 59.4167 59C60.7292 59 59.8542 57.4687 57.4479 55.6458C56.0625 54.625 54.8958 53.4583 54.8958 53.1667C54.8958 52.875 56.0625 52.3646 57.4479 52.1458C58.8333 51.8542 60 51.3437 60 50.9792C60 50.0312 54.75 45.875 52.8542 45.3646C51.6875 45.0729 50.5938 43.7604 49.5 41.2083C45.8542 33.2604 40.0208 27.7187 33.9687 26.5521C32.5104 26.2604 30.6146 25.6042 29.8125 25.0208C28.2083 23.9271 26.3125 23.7083 25.5104 24.5104Z" fill="#FAFAFB"/>
<path d="M31.5625 29.5416C31.5625 30.2708 33.8229 32.1666 34.2604 31.8021C34.9896 31.0729 33.8229 29.1041 32.6563 29.1041C32.0729 29.1041 31.5625 29.3229 31.5625 29.5416Z" fill="#FAFAFB"/>
</g>
<defs>
<clipPath id="clip0_44_211">
<rect width="35" height="35" fill="white" transform="translate(25 24)"/>
</clipPath>
</defs>
</svg>
