<svg width="87" height="87" viewBox="0 0 87 87" fill="none" xmlns="http://www.w3.org/2000/svg">
<path d="M31.8337 2.67699L61.7195 5.29166C75.199 6.47097 85.1703 18.3543 83.991 31.8337L81.3763 61.7196C80.197 75.1991 68.3137 85.1703 54.8342 83.991L24.9484 81.3764C11.4689 80.1971 1.49764 68.3138 2.67694 54.8343L5.29162 24.9484C6.45248 11.6797 17.9852 1.81017 31.2026 2.62962L31.8337 2.67699Z" fill="#E0E0E4" stroke="#E0E0E4"/>
<rect x="13.8337" y="13.834" width="59" height="59" rx="19.5" fill="#222222" stroke="#222222"/>
<g clip-path="url(#clip0_150_17)">
<path d="M67 43C67 29.7452 56.2548 19 43 19C29.7452 19 19 29.7452 19 43C19 56.2548 29.7452 67 43 67C56.2548 67 67 56.2548 67 43Z" fill="white"/>
<path d="M41.4282 19.0129C41.3249 19.0223 40.9965 19.0551 40.7009 19.0786C33.8833 19.6932 27.4974 23.3712 23.4528 29.0243C21.2006 32.1676 19.7601 35.733 19.2158 39.5096C19.0235 40.8279 19 41.2173 19 43.0047C19 44.7921 19.0235 45.1815 19.2158 46.4998C20.5202 55.512 26.9343 63.0839 35.6334 65.8893C37.1912 66.3913 38.8334 66.7338 40.7009 66.9402C41.4282 67.0199 44.5718 67.0199 45.2991 66.9402C48.5226 66.5836 51.2534 65.7861 53.9466 64.4115C54.3595 64.2004 54.4393 64.1441 54.383 64.0972C54.3455 64.0691 52.5859 61.7093 50.4745 58.8569L46.6364 53.6729L41.827 46.5561C39.1806 42.6435 37.0035 39.4439 36.9848 39.4439C36.966 39.4392 36.9472 42.6012 36.9378 46.4623C36.9238 53.2226 36.9191 53.4947 36.8346 53.6542C36.7126 53.884 36.6188 53.9779 36.4217 54.0811C36.2716 54.1561 36.1402 54.1702 35.4317 54.1702H34.6199L34.4041 54.0342C34.2633 53.945 34.1601 53.8277 34.0897 53.6917L33.9912 53.4806L34.0006 44.0743L34.0147 34.6634L34.1601 34.4804C34.2352 34.3819 34.3947 34.2553 34.5073 34.1943C34.6997 34.1004 34.7748 34.0911 35.5865 34.0911C36.5437 34.0911 36.7032 34.1286 36.9519 34.4007C37.0223 34.4757 39.6264 38.3978 42.7419 43.122C45.8575 47.8462 50.1179 54.2969 52.2106 57.4636L56.0111 63.2199L56.2035 63.0932C57.9067 61.9861 59.7085 60.4098 61.1349 58.7678C64.1707 55.2821 66.1273 51.0317 66.7842 46.4998C66.9765 45.1815 67 44.7921 67 43.0047C67 41.2173 66.9765 40.8279 66.7842 39.5096C65.4798 30.4974 59.0657 22.9255 50.3666 20.1201C48.8323 19.6228 47.1994 19.2803 45.3695 19.0739C44.9191 19.027 41.8176 18.9754 41.4282 19.0129ZM51.2534 33.5281C51.4786 33.6407 51.6616 33.8565 51.7273 34.0817C51.7648 34.2036 51.7742 36.8121 51.7648 42.6904L51.7507 51.1255L50.2633 48.8455L48.7713 46.5655V40.4338C48.7713 36.4696 48.79 34.2412 48.8182 34.1333C48.8933 33.8706 49.0575 33.6641 49.2827 33.5422C49.4751 33.4436 49.5455 33.4343 50.2821 33.4343C50.9765 33.4343 51.0985 33.4436 51.2534 33.5281Z" fill="#222222" stroke="#222222"/>
</g>
<defs>
<clipPath id="clip0_150_17">
<rect width="48" height="48" fill="white" transform="translate(19 19)"/>
</clipPath>
</defs>
</svg>
