<svg width="87" height="87" viewBox="0 0 87 87" fill="none" xmlns="http://www.w3.org/2000/svg">
<path d="M31.8337 2.67699L61.7195 5.29166C75.199 6.47097 85.1703 18.3543 83.991 31.8337L81.3763 61.7196C80.197 75.1991 68.3137 85.1703 54.8342 83.991L24.9484 81.3764C11.4689 80.1971 1.49764 68.3138 2.67694 54.8343L5.29162 24.9484C6.47092 11.469 18.3542 1.49769 31.8337 2.67699Z" fill="#E0E0E4" stroke="#E0E0E4"/>
<rect x="13.8337" y="13.834" width="59" height="59" rx="19.5" fill="#222222" stroke="#222222"/>
<g clip-path="url(#clip0_44_224)">
<path d="M33.4985 34.9358V36.0715H34.3314H35.1642V34.9358V33.8001H34.3314H33.4985V34.9358Z" fill="#FAFAFB"/>
<path d="M41.571 33.8388C41.5263 33.8942 41.5385 44.7363 41.5832 45.3125C41.7173 47.0521 42.5623 48.4095 43.7852 48.8471C43.9721 48.9136 44.2443 48.9358 44.7927 48.9413L45.5443 48.9524L45.5565 47.8056L45.5646 46.6643L44.9268 46.6421C44.3336 46.6255 44.2686 46.6144 44.0614 46.4815C43.777 46.2931 43.5089 45.933 43.3748 45.5452L43.2692 45.2405L43.257 43.041L43.2448 40.836L44.3946 40.825L45.5443 40.8083L45.5565 39.656L45.5646 38.5092H44.4068H43.2489V36.1546V33.8H42.4242C41.9692 33.8 41.5832 33.8167 41.571 33.8388Z" fill="#FAFAFB"/>
<path d="M28.4201 38.271C27.9976 38.3651 27.4532 38.7419 27.1038 39.1851L26.8398 39.512L26.6529 39.0632L26.4619 38.62H26.1003H25.7388V46.21V53.8H26.5919H27.4451V51.3347C27.4451 49.6726 27.4573 48.8693 27.4857 48.8693C27.5101 48.8693 27.6157 48.9302 27.7214 49.0023C28.1195 49.2793 28.3145 49.3236 29.1595 49.3513C29.8136 49.3735 30.0127 49.3624 30.2646 49.2848C31.1178 49.03 31.8206 48.1602 32.1091 47.0133L32.2187 46.5701V43.8277C32.2187 41.3181 32.2106 41.0577 32.1456 40.753C31.9181 39.7613 31.4956 39.0521 30.8537 38.5923C30.4312 38.2876 30.1793 38.2322 29.2936 38.2433C28.8711 38.2433 28.477 38.2599 28.4201 38.271ZM29.9071 40.6809C30.0249 40.764 30.1833 40.9358 30.2646 41.0632C30.5287 41.4898 30.5368 41.5729 30.5246 43.8887C30.5124 45.9053 30.5084 45.9663 30.423 46.1879C30.2971 46.5147 30.1021 46.7585 29.8502 46.9136C29.6471 47.0466 29.6064 47.0466 28.9158 47.03C28.217 47.0133 28.1926 47.0078 28.0098 46.8638C27.7823 46.6809 27.6279 46.4427 27.5101 46.0992C27.4288 45.861 27.4248 45.7613 27.4248 43.7723C27.4248 41.7169 27.4248 41.6892 27.5182 41.4455C27.6807 41.0078 27.8839 40.753 28.1845 40.6034C28.3673 40.5203 28.5014 40.5036 29.0499 40.5203C29.6674 40.5314 29.7121 40.5424 29.9071 40.6809Z" fill="#FAFAFB"/>
<path d="M56.9399 38.271C56.493 38.3707 55.9486 38.753 55.5952 39.2128C55.3392 39.5452 55.3636 39.5563 55.1523 39.0355C55.0751 38.8527 54.998 38.6865 54.9736 38.6643C54.9492 38.6422 54.7786 38.62 54.5957 38.62H54.2585V46.21V53.8H55.0914H55.9242V51.3624C55.9242 49.3236 55.9324 48.9136 55.9811 48.8915C56.0136 48.8748 56.1274 48.9247 56.233 48.9967C56.6433 49.2793 56.8302 49.3236 57.6956 49.3513C58.4309 49.379 58.5447 49.3679 58.8494 49.2627C59.7188 48.9635 60.3851 48.0715 60.6654 46.8416C60.7304 46.5424 60.7385 46.2765 60.7385 43.8554C60.7385 40.897 60.7385 40.9025 60.4663 40.1158C60.1616 39.2405 59.4588 38.487 58.7762 38.2931C58.5772 38.2377 57.1634 38.2211 56.9399 38.271ZM58.4431 40.7031C58.565 40.7973 58.7275 40.9801 58.7966 41.1075C59.0363 41.5286 59.0525 41.7003 59.0525 43.8C59.0525 45.9718 59.0363 46.1103 58.7559 46.5258C58.4472 46.9856 58.37 47.0133 57.4884 47.0133C56.6108 47.0133 56.5255 46.9801 56.233 46.5424C55.9405 46.0992 55.9446 46.1491 55.9446 43.7945V41.6892L56.0664 41.3624C56.2086 40.9856 56.4077 40.7474 56.7043 40.6089C56.8871 40.5203 57.0212 40.5036 57.5696 40.5147C58.2115 40.5313 58.2237 40.5313 58.4431 40.7031Z" fill="#FAFAFB"/>
<path d="M48.6032 38.3762C47.9857 38.5757 47.3925 39.2128 47.0959 39.9829C46.8319 40.6809 46.8237 40.7696 46.8237 43.7779C46.8237 45.4455 46.84 46.5923 46.8684 46.7973C46.9375 47.3236 47.1934 47.9884 47.4859 48.3928C47.7663 48.7806 48.0019 48.9856 48.4041 49.1962C48.6601 49.3236 48.721 49.3347 49.7204 49.3568C50.9474 49.3845 51.1708 49.3457 51.6583 49.0244C52.2718 48.6255 52.7268 47.8665 52.8974 46.9579C52.9462 46.6865 52.9584 46.1546 52.9584 43.8444C52.9584 42.0438 52.9421 40.9579 52.9137 40.7696C52.8284 40.21 52.609 39.6837 52.2718 39.2294C51.9143 38.7474 51.6705 38.548 51.2277 38.3984C50.9514 38.2987 50.7848 38.2876 49.8748 38.2931C49.1395 38.2931 48.7657 38.3208 48.6032 38.3762ZM50.6467 40.5424C50.8945 40.692 51.118 41.0078 51.248 41.3845L51.3536 41.6948V43.8277C51.3536 45.8776 51.3496 45.9718 51.2683 46.2156C51.1545 46.548 50.9595 46.8471 50.728 47.03C50.5451 47.174 50.5248 47.1795 49.9114 47.1795C49.367 47.1795 49.2613 47.1629 49.1191 47.0687C48.9119 46.9302 48.6844 46.6034 48.5666 46.2765C48.4691 46.0161 48.4691 46.0161 48.4691 43.8C48.4691 41.6061 48.4691 41.584 48.5626 41.3513C48.7535 40.8582 49.0379 40.5424 49.3832 40.4427C49.4604 40.4205 49.7367 40.4039 49.9926 40.415C50.3583 40.4261 50.5005 40.4538 50.6467 40.5424Z" fill="#FAFAFB"/>
<path d="M33.5186 38.5757C33.5064 38.6145 33.5023 40.9635 33.5064 43.8L33.5186 48.9524L34.3433 48.969L35.164 48.9801V43.7446V38.5092H34.3514C33.738 38.5092 33.5308 38.5258 33.5186 38.5757Z" fill="#FAFAFB"/>
<path d="M36.4233 43.8001V44.9358H38.3531H40.2829V43.8001V42.6643H38.3531H36.4233V43.8001Z" fill="#FAFAFB"/>
</g>
<defs>
<clipPath id="clip0_44_224">
<rect width="35" height="30" fill="white" transform="translate(25 28)"/>
</clipPath>
</defs>
</svg>
