<svg width="87" height="87" viewBox="0 0 87 87" fill="none" xmlns="http://www.w3.org/2000/svg">
<path d="M31.8337 2.67699L61.7195 5.29166C75.199 6.47097 85.1703 18.3543 83.991 31.8337L81.3763 61.7196C80.197 75.1991 68.3137 85.1703 54.8342 83.991L24.9484 81.3764C11.4689 80.1971 1.49764 68.3138 2.67694 54.8343L5.29162 24.9484C6.47092 11.469 18.3542 1.49769 31.8337 2.67699Z" fill="#E0E0E4" stroke="#E0E0E4"/>
<rect x="13.8337" y="13.834" width="59" height="59" rx="19.5" fill="#222222" stroke="#222222"/>
<path d="M35.1602 28.0051C35.3593 28.0046 35.5584 28.0034 35.7575 28.0016C36.9582 27.9911 38.1165 28.0279 39.3027 28.2477C39.3956 28.2638 39.4885 28.2798 39.5815 28.2957C40.6571 28.4799 41.7989 28.9474 42.7429 29.5471C42.8035 29.5833 42.8641 29.6195 42.9249 29.6554C43.5543 30.0345 44.0966 30.5243 44.6147 31.0724C44.6873 31.148 44.6873 31.148 44.7614 31.2251C45.3818 31.8843 45.8457 32.6523 46.2336 33.5017C46.2512 33.5397 46.2687 33.5777 46.2868 33.6169C46.7352 34.6084 47.0127 35.7279 47.0937 36.8348C47.0979 36.8833 47.1021 36.9318 47.1064 36.9818C47.194 38.0357 47.1916 39.121 47.0431 40.168C47.0371 40.2103 47.0311 40.2526 47.025 40.2963C46.809 41.7437 46.3077 43.2023 45.4748 44.3485C45.442 44.3964 45.4092 44.4444 45.3754 44.4937C43.6749 46.9195 41.0878 48.0304 38.4118 48.3947C37.483 48.5146 36.5498 48.4918 35.6163 48.4842C35.3751 48.4825 35.1339 48.4817 34.8927 48.4809C34.4234 48.4791 33.9541 48.4762 33.4847 48.4726C33.4849 48.5202 33.485 48.5678 33.4852 48.6168C33.4885 49.7738 33.491 50.9308 33.4926 52.0878C33.4934 52.6474 33.4945 53.2069 33.4962 53.7664C33.4977 54.254 33.4987 54.7415 33.499 55.2291C33.4992 55.4873 33.4997 55.7456 33.5008 56.0039C33.5018 56.2468 33.5021 56.4897 33.5019 56.7326C33.502 56.8219 33.5023 56.9112 33.5028 57.0005C33.5036 57.1222 33.5034 57.2438 33.503 57.3655C33.5031 57.4337 33.5033 57.5018 33.5034 57.5721C33.4847 57.7376 33.4847 57.7376 33.421 57.8442C33.3124 57.9218 33.2484 57.9285 33.1198 57.929C33.0547 57.9298 33.0547 57.9298 32.9883 57.9307C32.9408 57.9304 32.8934 57.9302 32.8445 57.9299C32.7943 57.9303 32.7442 57.9307 32.6926 57.9311C32.5266 57.9321 32.3607 57.9319 32.1947 57.9316C32.0796 57.9319 31.9644 57.9322 31.8493 57.9325C31.6079 57.933 31.3665 57.9329 31.1252 57.9323C30.8153 57.9317 30.5056 57.9328 30.1958 57.9344C29.958 57.9355 29.7203 57.9355 29.4825 57.9351C29.3683 57.9351 29.254 57.9355 29.1398 57.9362C28.9802 57.937 28.8208 57.9364 28.6612 57.9354C28.6138 57.936 28.5663 57.9365 28.5174 57.9371C28.474 57.9365 28.4306 57.936 28.3858 57.9354C28.3481 57.9354 28.3104 57.9354 28.2715 57.9354C28.1727 57.9071 28.1727 57.9071 28.0918 57.8227C27.9896 57.6186 28.0001 57.4228 28.0018 57.195C28.0016 57.1452 28.0014 57.0954 28.0012 57.0441C28.0006 56.876 28.0011 56.7079 28.0017 56.5398C28.0015 56.4186 28.0012 56.2973 28.0009 56.1761C28.0003 55.842 28.0006 55.5079 28.0011 55.1738C28.0014 54.8138 28.0009 54.4539 28.0005 54.0939C27.9999 53.4292 27.9999 52.7645 28.0003 52.0998C28.0007 51.4859 28.0008 50.8719 28.0006 50.258C28.0006 50.2173 28.0006 50.1766 28.0006 50.1347C28.0005 49.9695 28.0005 49.8044 28.0004 49.6392C28 48.0893 28.0004 46.5393 28.0012 44.9894C28.0019 43.6115 28.0019 42.2336 28.0011 40.8558C28.0003 39.3086 28 37.7615 28.0005 36.2143C28.0005 36.0495 28.0006 35.8847 28.0006 35.7198C28.0006 35.6792 28.0006 35.6386 28.0007 35.5968C28.0008 34.9831 28.0006 34.3694 28.0002 33.7557C27.9998 33.0581 27.9999 32.3606 28.0007 31.663C28.0011 31.3068 28.0013 30.9506 28.0008 30.5944C28.0003 30.2688 28.0006 29.9432 28.0014 29.6175C28.0016 29.4993 28.0015 29.3811 28.0011 29.2628C28.0007 29.1029 28.0011 28.9431 28.0018 28.7832C28.0015 28.7366 28.0011 28.69 28.0008 28.642C28.0036 28.3282 28.0036 28.3282 28.0906 28.2078C28.2058 28.1053 28.2865 28.1126 28.4326 28.1112C28.5127 28.1098 28.5127 28.1098 28.5944 28.1084C28.6527 28.1082 28.711 28.108 28.7711 28.1078C28.8325 28.1069 28.8938 28.106 28.957 28.1051C29.1551 28.1025 29.3532 28.1009 29.5513 28.0994C29.7416 28.0973 29.9318 28.095 30.122 28.0926C30.2544 28.0909 30.3867 28.0894 30.5191 28.0879C31.005 28.0822 31.4906 28.0691 31.9763 28.0536C33.0376 28.0202 34.0986 28.0075 35.1602 28.0051Z" fill="#FAFAFB"/>
<path d="M62.3184 34.8434C62.3655 34.8422 62.4126 34.8411 62.4611 34.8399C62.5289 34.8394 62.5289 34.8394 62.598 34.839C62.6385 34.8385 62.679 34.8379 62.7207 34.8374C62.8568 34.8631 62.8939 34.9075 62.9792 35.027C62.9983 35.1391 62.9983 35.1391 62.9985 35.2693C62.9989 35.3187 62.9993 35.3682 62.9998 35.4191C62.9993 35.5002 62.9993 35.5002 62.9988 35.5829C62.9992 35.6685 62.9992 35.6685 62.9996 35.7558C63.0003 35.9448 62.9999 36.1338 62.9994 36.3228C62.9995 36.4539 62.9996 36.585 62.9998 36.7161C63 36.991 62.9997 37.2658 62.999 37.5407C62.9981 37.8935 62.9986 38.2463 62.9995 38.5991C63.0001 38.8698 62.9999 39.1405 62.9995 39.4112C62.9994 39.5413 62.9995 39.6715 62.9999 39.8016C63.0003 39.9832 62.9997 40.1648 62.9988 40.3465C62.9991 40.4006 62.9994 40.4546 62.9998 40.5103C62.9991 40.5845 62.9991 40.5845 62.9985 40.6601C62.9984 40.7031 62.9984 40.746 62.9983 40.7903C62.9739 40.9337 62.9302 40.984 62.8274 41.0719C62.6948 41.0936 62.6948 41.0936 62.5344 41.0948C62.4749 41.0959 62.4154 41.0971 62.3541 41.0982C62.2581 41.0992 62.2581 41.0992 62.1603 41.1001C60.3128 41.1455 58.1697 41.508 56.7059 42.8797C56.6624 42.9164 56.6189 42.9531 56.574 42.9909C56.3985 43.2393 56.4181 43.4449 56.4217 43.753C56.4213 43.8131 56.421 43.8733 56.4207 43.9352C56.4199 44.1371 56.421 44.3389 56.422 44.5408C56.4218 44.6854 56.4216 44.8299 56.4212 44.9745C56.4205 45.2859 56.4207 45.5974 56.4215 45.9088C56.4227 46.3592 56.4223 46.8096 56.4215 47.26C56.4203 47.991 56.4201 48.7219 56.4206 49.4528C56.4207 49.4966 56.4207 49.5403 56.4207 49.5854C56.4208 49.6739 56.4208 49.7624 56.4209 49.851C56.421 49.9168 56.421 49.9168 56.421 49.984C56.421 50.0279 56.4211 50.0718 56.4211 50.1171C56.4214 50.6054 56.4215 51.0937 56.4216 51.582C56.4216 51.6258 56.4216 51.6695 56.4216 51.7146C56.4216 52.443 56.4209 53.1714 56.42 53.8998C56.4194 54.3493 56.4195 54.7988 56.4203 55.2483C56.4209 55.5922 56.4207 55.9362 56.4203 56.2801C56.4203 56.4216 56.4205 56.563 56.421 56.7044C56.4216 56.8967 56.4214 57.089 56.4209 57.2813C56.4213 57.3379 56.4217 57.3946 56.4221 57.4529C56.4216 57.5297 56.4216 57.5297 56.4211 57.6081C56.4212 57.6525 56.4212 57.697 56.4213 57.7427C56.415 57.7783 56.4088 57.8139 56.4024 57.8506C56.2447 57.968 56.2093 57.9779 56.0301 57.9791C55.9851 57.9797 55.9401 57.9802 55.8937 57.9808C55.8444 57.9808 55.7951 57.9809 55.7443 57.9809C55.6923 57.9814 55.6403 57.9818 55.5867 57.9823C55.4144 57.9837 55.2421 57.9842 55.0698 57.9846C54.9503 57.9851 54.8308 57.9856 54.7112 57.9861C54.4605 57.987 54.2098 57.9875 53.9591 57.9876C53.6375 57.9879 53.3159 57.9901 52.9943 57.9927C52.7474 57.9943 52.5005 57.9947 52.2536 57.9948C52.135 57.995 52.0165 57.9957 51.8979 57.9969C51.7322 57.9984 51.5665 57.9982 51.4008 57.9975C51.3516 57.9983 51.3025 57.9991 51.2518 58C51.2066 57.9994 51.1614 57.9989 51.1149 57.9983C51.0757 57.9984 51.0366 57.9986 50.9962 57.9987C50.888 57.9636 50.888 57.9636 50.7742 57.8651C50.6341 57.5742 50.6577 57.2885 50.6597 56.9633C50.6594 56.8895 50.659 56.8156 50.6587 56.7395C50.6577 56.5346 50.6581 56.3296 50.6586 56.1246C50.659 55.9034 50.6581 55.6822 50.6575 55.461C50.6565 55.0772 50.6562 54.6933 50.6564 54.3095C50.6567 53.7517 50.6559 53.1939 50.6547 52.6361C50.6529 51.7273 50.6519 50.8186 50.6515 49.9098C50.6511 49.0335 50.6505 48.1572 50.6493 47.2809C50.6492 47.2004 50.6492 47.2004 50.6491 47.1183C50.6484 46.5294 50.6475 45.9404 50.6466 45.3515C50.6464 45.1938 50.6461 45.0361 50.6459 44.8785C50.6457 44.7743 50.6456 44.6701 50.6454 44.5659C50.6444 43.911 50.6437 43.2561 50.6434 42.6012C50.6437 40.1577 50.6437 40.1577 50.6123 37.7145C50.6114 37.6646 50.6104 37.6146 50.6094 37.5632C50.6007 37.1354 50.5902 36.7082 50.5679 36.2811C50.5651 36.2265 50.5623 36.1718 50.5595 36.1156C50.554 36.0096 50.548 35.9037 50.5415 35.7979C50.5391 35.7505 50.5366 35.703 50.5341 35.6541C50.5316 35.6121 50.5291 35.57 50.5266 35.5267C50.5338 35.4225 50.5338 35.4225 50.635 35.3095C50.7831 35.298 50.9263 35.2935 51.0744 35.294C51.1199 35.2937 51.1654 35.2934 51.2123 35.2931C51.3633 35.2923 51.5142 35.2924 51.6652 35.2925C51.77 35.2923 51.8747 35.292 51.9794 35.2918C52.1993 35.2913 52.4191 35.2913 52.6389 35.2916C52.9207 35.292 53.2024 35.291 53.4841 35.2897C53.7005 35.2889 53.917 35.2888 54.1334 35.289C54.2373 35.289 54.3411 35.2887 54.445 35.2881C54.5903 35.2874 54.7356 35.2878 54.881 35.2884C54.9239 35.288 54.9668 35.2876 55.011 35.2871C55.2471 35.2895 55.4011 35.3086 55.5929 35.479C55.7668 35.7197 55.8463 35.9571 55.9028 36.2558C55.9111 36.2982 55.9195 36.3407 55.928 36.3844C56.0418 37.0153 56.066 37.6624 56.0988 38.3037C56.1326 38.2613 56.1663 38.2189 56.201 38.1752C57.3914 36.6926 58.9205 35.5868 60.652 35.0835C60.7085 35.0661 60.765 35.0487 60.8232 35.0308C61.3189 34.8828 61.8064 34.8467 62.3184 34.8434Z" fill="#FAFAFB"/>
<path d="M33.5353 33.6147C39.2459 33.6147 39.2459 33.6147 40.5801 35.0694C40.9509 35.4928 41.202 35.9442 41.3927 36.4959C41.4111 36.5491 41.4111 36.5491 41.4299 36.6034C41.5979 37.1223 41.6486 37.6487 41.6457 38.1977C41.6453 38.2822 41.6453 38.2822 41.6449 38.3683C41.6282 39.5631 41.3498 40.6982 40.5676 41.5537C39.9865 42.1606 39.3493 42.5042 38.5944 42.7667C38.5608 42.7785 38.5271 42.7903 38.4924 42.8024C36.8506 43.363 35.2889 43.1622 33.5353 43.1622C33.5353 40.0115 33.5353 36.8608 33.5353 33.6147Z" fill="#222222"/>
</svg>
