<svg width="87" height="87" viewBox="0 0 87 87" fill="none" xmlns="http://www.w3.org/2000/svg">
<path d="M31.8337 2.67699L61.7195 5.29166C75.199 6.47097 85.1703 18.3543 83.991 31.8337L81.3763 61.7196C80.197 75.1991 68.3137 85.1703 54.8342 83.991L24.9484 81.3764C11.4689 80.1971 1.49764 68.3138 2.67694 54.8343L5.29162 24.9484C6.47092 11.469 18.3542 1.49769 31.8337 2.67699Z" fill="#E0E0E4" stroke="#E0E0E4"/>
<rect x="13.8337" y="13.834" width="59" height="59" rx="19.5" fill="#222222" stroke="#E0E0E4"/>
<path d="M34.5363 26.1244C33.5449 26.5045 32.858 27.182 32.3818 28.2561C31.9681 29.198 31.8276 29.9416 31.7808 31.4041C31.7417 32.8583 31.8354 33.8746 32.1711 35.6097C32.3038 36.2872 32.4286 36.9399 32.4443 37.0556C32.4755 37.2456 32.4286 37.2787 31.7495 37.5513C29.9229 38.2619 28.4788 39.1873 27.425 40.311C26.3634 41.4429 25.9185 42.5088 26.0122 43.7481C26.1136 45.2271 27.066 46.6482 28.7677 47.8463C29.4546 48.3338 31.0236 49.1518 31.8432 49.4575C32.1242 49.5566 32.3818 49.6723 32.4208 49.7053C32.4521 49.7384 32.3974 50.168 32.2881 50.6638C31.8666 52.5889 31.812 53.1012 31.812 55.0677C31.812 56.7284 31.8276 56.9928 31.9837 57.5877C32.3662 59.0667 33.0687 60.0912 34.0445 60.5952C36.1989 61.7106 39.0715 60.5208 42.7247 57.0258L43.3101 56.4557L43.9424 57.0506C45.7378 58.7196 47.6268 59.8764 49.1646 60.2399C49.5705 60.3391 49.9608 60.3639 50.5072 60.3391C51.2019 60.306 51.3424 60.2647 51.8654 59.9921C53.692 59.0336 54.496 56.6127 54.1682 53.0764C54.0979 52.3493 53.8872 50.9612 53.7311 50.1928C53.692 49.9945 53.7232 49.9697 54.2619 49.788C55.1361 49.4905 56.4787 48.9039 57.2125 48.4825C59.9212 46.9457 61.256 44.971 60.9594 42.9384C60.6315 40.6663 58.2195 38.5593 54.4804 37.2621C54.1135 37.1382 53.7857 37.006 53.7545 36.973C53.7154 36.9399 53.7779 36.4359 53.8872 35.8493C54.6053 31.9164 54.176 28.9419 52.6694 27.5125C50.796 25.7361 47.6971 26.5293 44.161 29.6938C43.7004 30.1069 43.3023 30.4457 43.2711 30.4457C43.2399 30.4457 42.9511 30.173 42.6232 29.8425C40.9371 28.1404 39.1027 26.868 37.5415 26.3062C36.9015 26.0748 36.6673 26.0335 35.8633 26.0087C35.1061 25.9839 34.8485 26.0087 34.5363 26.1244ZM37.1044 27.5621C38.5407 28.0661 40.0394 29.1154 41.8738 30.8918L42.4202 31.4206L41.866 32.032C41.1869 32.7839 40.3283 33.8828 39.5399 34.9735L38.9544 35.7997L38.5017 35.8575C37.5572 35.9732 35.7462 36.3202 34.786 36.5681C34.2318 36.7086 33.7557 36.7912 33.7166 36.7581C33.6152 36.6425 33.2639 34.8578 33.1234 33.7424C32.9673 32.4782 33.0141 30.4209 33.2092 29.6607C33.7635 27.5621 35.0827 26.8432 37.1044 27.5621ZM51.0224 28.0082C51.8654 28.2726 52.5446 29.2228 52.8178 30.5283C53.0832 31.7759 52.9348 34.7173 52.5289 36.3202L52.4509 36.6177L51.8186 36.469C51.0146 36.2707 49.2036 35.9402 48.1888 35.8162L47.3926 35.7171L46.5652 34.5521C46.1125 33.9076 45.3943 32.9492 44.965 32.4286L44.1922 31.4785L44.3561 31.2802C44.4498 31.1727 44.8791 30.7927 45.3084 30.4209C47.6424 28.4296 49.6564 27.5786 51.0224 28.0082ZM44.0439 33.3292C44.442 33.825 44.9884 34.5273 45.2538 34.8908L45.7378 35.5601L43.2243 35.5849C41.8348 35.6014 40.6951 35.6014 40.6795 35.6014C40.6015 35.5683 43.1462 32.4369 43.2555 32.4286C43.2867 32.4286 43.6458 32.8335 44.0439 33.3292ZM46.0422 36.9482L46.6979 36.9977L47.1819 37.7909C48.2825 39.5921 50.1091 43.1202 50.1091 43.4507C50.1091 43.5251 49.8671 44.1034 49.5705 44.7314C48.4542 47.0779 46.8696 49.821 46.5418 49.9532C45.9485 50.1928 39.9536 50.0937 39.6569 49.8375C39.212 49.4492 36.1365 43.8886 36.1365 43.4672C36.1365 43.145 37.9865 39.6913 39.0949 37.9397L39.6413 37.0721L40.1331 37.0225C40.4063 36.9977 40.7654 36.9564 40.9371 36.9482C41.5538 36.8903 45.4021 36.8903 46.0422 36.9482ZM51.1941 37.6835C51.6859 37.7909 52.1074 37.8983 52.123 37.9149C52.1933 37.9975 50.9209 41.7652 50.8272 41.7652C50.796 41.7652 50.5775 41.3686 50.3433 40.8811C50.1091 40.4019 49.5705 39.3856 49.1412 38.6337C48.7196 37.8818 48.3606 37.2374 48.345 37.2126C48.3059 37.1382 50.1559 37.4439 51.1941 37.6835ZM37.9318 37.3365C37.9318 37.3448 37.6274 37.8818 37.2527 38.518C36.8702 39.1542 36.3238 40.1623 36.0194 40.7571C35.7228 41.352 35.4495 41.8478 35.4261 41.8478C35.3637 41.8478 34.5284 39.6087 34.263 38.7659C34.1694 38.4519 34.1225 38.171 34.1538 38.1297C34.3333 37.9562 37.9318 37.196 37.9318 37.3365ZM54.4258 38.6337C57.0954 39.6748 58.8752 40.9885 59.4918 42.4014C59.9992 43.5416 59.7416 44.6157 58.7034 45.7311C58.0868 46.3921 57.111 47.0862 56.0182 47.6315C55.1205 48.0776 53.411 48.7304 53.3564 48.6395C53.3408 48.6064 53.2315 48.2429 53.1144 47.838C52.8802 47.0035 52.2167 45.1197 51.8108 44.1199L51.5376 43.459L52.0294 42.2196C52.3026 41.5338 52.7085 40.3771 52.9348 39.6417C53.1768 38.8568 53.3876 38.2949 53.45 38.2949C53.4969 38.2949 53.9418 38.4519 54.4258 38.6337ZM33.2092 39.5756C33.5761 40.6828 34.0445 41.9304 34.4114 42.7814C34.5441 43.0954 34.6533 43.3929 34.6533 43.4424C34.6533 43.5003 34.427 44.1034 34.1538 44.7892C33.8727 45.475 33.4668 46.5739 33.2483 47.2349L32.8424 48.4329L32.3272 48.2346C31.4139 47.8959 29.7902 47.0035 29.1502 46.4995C28.3696 45.8881 27.7841 45.2106 27.4953 44.5909C27.3158 44.2026 27.2767 44.0125 27.2767 43.5003C27.2767 42.9549 27.308 42.8062 27.5421 42.3105C28.1276 41.0546 29.6653 39.8648 31.9993 38.8651C32.4052 38.6915 32.7721 38.5593 32.8111 38.5676C32.8502 38.5841 33.0297 39.0386 33.2092 39.5756ZM35.8633 45.8633C36.2379 46.6482 37.1434 48.2759 37.7211 49.2179C37.885 49.4823 37.9865 49.6971 37.9474 49.6971C37.7523 49.6971 35.9647 49.3253 35.1061 49.1104C34.427 48.9369 34.1069 48.8213 34.1069 48.7469C34.1069 48.4908 35.3403 45.0701 35.4261 45.0701C35.4495 45.0701 35.6447 45.4337 35.8633 45.8633ZM51.2644 46.2434C51.803 47.7637 52.1543 48.97 52.084 49.0443C51.9591 49.1683 48.4308 49.8541 48.3528 49.7632C48.3372 49.7467 48.462 49.4905 48.6416 49.2013C49.0865 48.4577 50.195 46.3839 50.5072 45.7063C50.6477 45.4006 50.7882 45.1528 50.8194 45.1528C50.8507 45.1528 51.0458 45.6485 51.2644 46.2434ZM34.7704 50.3994C35.3949 50.5646 37.2683 50.9117 38.7593 51.1513C38.9466 51.1761 39.0793 51.3083 39.3837 51.7379C39.977 52.5972 41.0386 53.9605 41.7567 54.7785L42.4046 55.5221L41.827 56.0839C38.8998 58.9758 36.1911 60.2317 34.6377 59.4219C33.9352 59.0584 33.4981 58.4057 33.1936 57.2737C33.0063 56.5797 32.9751 54.3158 33.1312 53.126C33.2483 52.2089 33.6073 50.3168 33.6932 50.168C33.7166 50.135 33.7869 50.1267 33.8571 50.1433C33.9352 50.168 34.3411 50.2837 34.7704 50.3994ZM52.4899 50.4324C52.5133 50.482 52.6226 51.0604 52.7397 51.7379C53.0129 53.4152 53.0363 55.5964 52.7787 56.5797C52.3338 58.2983 51.5688 59.0336 50.2262 59.0336C48.7743 59.0336 46.6433 57.8438 44.5747 55.8691L44.1688 55.489L44.9494 54.5306C45.3787 54.0101 46.089 53.0681 46.534 52.4402C46.9711 51.8205 47.3614 51.2835 47.4004 51.2587C47.4395 51.2256 47.7517 51.1843 48.0952 51.1513C48.7977 51.0934 51.1629 50.672 51.8264 50.4903C52.365 50.3498 52.4353 50.3415 52.4899 50.4324ZM45.6675 51.4735C44.8401 52.6468 43.3648 54.4893 43.2399 54.4893C43.1696 54.4893 41.8738 52.9525 41.1869 52.0519L40.6873 51.3826L43.2086 51.3909C44.8713 51.3909 45.7066 51.4157 45.6675 51.4735Z" fill="#FAFAFB"/>
<path d="M42.5919 39.6251C41.6942 39.8482 40.6482 40.7075 40.2032 41.5998C38.9777 44.029 40.375 46.9704 42.9509 47.4001C43.7159 47.524 44.4184 47.4001 45.16 47.02C47.0647 46.0202 47.7672 43.6407 46.7758 41.5668C46.5261 41.038 45.8001 40.2696 45.3005 40.0052C44.4809 39.5673 43.4271 39.4186 42.5919 39.6251ZM44.6058 41.1206C45.4332 41.5751 45.9016 42.3435 45.9562 43.335C46.0187 44.4752 45.5425 45.3345 44.5824 45.8302C43.552 46.3673 42.4201 46.1359 41.6473 45.227C40.4686 43.839 40.9994 41.6577 42.6777 40.9802C43.1461 40.7901 44.1218 40.8645 44.6058 41.1206Z" fill="#FAFAFB"/>
</svg>
