<svg width="87" height="87" viewBox="0 0 87 87" fill="none" xmlns="http://www.w3.org/2000/svg">
<path d="M31.8337 2.67699L61.7195 5.29166C75.199 6.47097 85.1703 18.3543 83.991 31.8337L81.3763 61.7196C80.197 75.1991 68.3137 85.1703 54.8342 83.991L24.9484 81.3764C11.4689 80.1971 1.49764 68.3138 2.67694 54.8343L5.29162 24.9484C6.47092 11.469 18.3542 1.49769 31.8337 2.67699Z" fill="#E0E0E4" stroke="#E0E0E4"/>
<rect x="13.8337" y="13.834" width="59" height="59" rx="19.5" fill="#222222" stroke="#222222"/>
<path d="M42.5 28C37.8333 28 34.9167 31.3331 33.75 37.9993C35.5 34.6662 37.5417 33.4169 39.875 34.2494C41.2065 34.7246 42.158 36.1051 43.2117 37.6326C44.9267 40.1196 46.9122 42.9995 51.25 42.9995C55.9167 42.9995 58.8333 39.6664 60 32.9991C58.25 36.3322 56.2083 37.5825 53.875 36.75C52.5443 36.2749 51.5927 34.8944 50.5391 33.3669C48.8233 30.8788 46.8371 28 42.5 28ZM33.75 42.9995C29.0833 42.9995 26.1667 46.3326 25 52.9998C26.75 49.6667 28.7917 48.4164 31.125 49.25C32.4557 49.7261 33.4073 51.1056 34.4609 52.632C36.1767 55.1201 38.1629 58 42.5 58C47.1667 58 50.0833 54.6669 51.25 47.9997C49.5 51.3328 47.4583 52.5831 45.125 51.7495C43.7935 51.2744 42.842 49.8939 41.7883 48.3675C40.0733 45.8793 38.0878 42.9995 33.75 42.9995Z" fill="#FAFAFB"/>
</svg>
