<svg width="87" height="87" viewBox="0 0 87 87" fill="none" xmlns="http://www.w3.org/2000/svg">
<path d="M31.8337 2.67699L61.7195 5.29166C75.199 6.47097 85.1703 18.3543 83.991 31.8337L81.3763 61.7196C80.197 75.1991 68.3137 85.1703 54.8342 83.991L24.9484 81.3764C11.4689 80.1971 1.49764 68.3138 2.67694 54.8343L5.29162 24.9484C6.45248 11.6797 17.9852 1.81017 31.2026 2.62962L31.8337 2.67699Z" fill="#E0E0E4" stroke="#E0E0E4"/>
<rect x="13.8337" y="13.834" width="59" height="59" rx="19.5" fill="#222222" stroke="#222222"/>
<path d="M45.3098 31C46.5952 31.412 47.3216 32.0335 48.2654 32.9875C48.4027 33.1253 48.5399 33.2631 48.6813 33.405C48.9701 33.6957 49.2578 33.9875 49.5445 34.2802C49.9801 34.7249 50.4187 35.1664 50.858 35.6074C52.0794 36.8404 53.2519 38.0722 54.3279 39.4364C54.8068 39.9271 55.2922 40.4115 55.7824 40.8909C56.078 41.1889 56.3731 41.4874 56.6677 41.7864C56.9726 42.0939 57.2775 42.4015 57.5824 42.7091C57.815 42.9453 57.815 42.9453 58.0523 43.1864C58.8734 44.0349 58.8734 44.0349 59.8551 44.6727C59.8551 40.4487 59.8551 36.2247 59.8551 31.8727C61.4871 31.8727 63.1191 31.8727 64.8006 31.8727C64.8006 39.5527 64.8006 47.2327 64.8006 55.1455C64.3206 55.2415 63.8406 55.3375 63.346 55.4364C62.6781 54.9763 62.6781 54.9763 61.9884 54.2723C61.7283 54.0111 61.4682 53.75 61.2003 53.4809C60.9204 53.1911 60.6406 52.9013 60.3608 52.6114C60.0712 52.3177 59.7812 52.0245 59.4907 51.7317C58.7272 50.9598 57.9689 50.183 57.2117 49.4049C56.2903 48.4598 55.3635 47.5202 54.4369 46.5803C53.7161 45.8491 52.9964 45.117 52.2797 44.3818C52.0224 44.1188 51.765 43.8558 51.4999 43.5848C51.273 43.352 51.0461 43.1192 50.8124 42.8794C50.292 42.328 50.292 42.328 49.6734 42.0545C49.6757 42.6207 49.6757 42.6207 49.678 43.1982C49.6833 44.5932 49.6866 45.9881 49.6894 47.383C49.6908 47.9878 49.6928 48.5925 49.6953 49.1972C49.6988 50.0644 49.7005 50.9316 49.7018 51.7989C49.7033 52.071 49.7048 52.3431 49.7063 52.6235C49.7064 52.9991 49.7064 52.9991 49.7064 53.3823C49.7071 53.6039 49.7077 53.8255 49.7084 54.0538C49.6734 54.5636 49.6734 54.5636 49.3825 54.8546C48.6519 54.8836 47.9311 54.8949 47.2007 54.8909C46.9963 54.892 46.7919 54.8932 46.5814 54.8943C45.0557 54.8914 45.0557 54.8914 44.728 54.5636C44.6972 53.8498 44.6853 53.1442 44.6857 52.4302C44.6847 52.2069 44.6838 51.9837 44.6827 51.7536C44.68 51.0119 44.6794 50.2702 44.6791 49.5284C44.6782 49.015 44.6772 48.5015 44.6762 47.9881C44.6744 46.9103 44.6739 45.8325 44.6741 44.7548C44.6741 43.3711 44.6701 41.9875 44.6651 40.6039C44.6619 39.543 44.6613 38.4822 44.6614 37.4213C44.6611 36.9111 44.6598 36.4008 44.6576 35.8906C44.6547 35.178 44.6555 34.4655 44.6573 33.7529C44.6557 33.5406 44.654 33.3282 44.6523 33.1094C44.6615 31.6482 44.6615 31.6482 45.3098 31Z" fill="white"/>
<path d="M20.0005 31.8727C21.7285 31.8727 23.4565 31.8727 25.2368 31.8727C26.6687 34.7089 28.0729 37.5573 29.455 40.4181C29.6122 40.7415 29.7694 41.065 29.9314 41.3982C30.0772 41.701 30.223 42.0038 30.3732 42.3159C30.5046 42.5879 30.636 42.8599 30.7714 43.1402C31.055 43.8 31.055 43.8 31.055 44.3818C31.7286 43.7645 32.135 43.1951 32.5295 42.3731C32.694 42.0339 32.694 42.0339 32.8618 41.6878C33.035 41.3237 33.035 41.3237 33.2118 40.9522C33.3325 40.7023 33.4533 40.4524 33.5777 40.195C33.9627 39.3974 34.3453 38.5988 34.7277 37.7999C35.1125 36.9993 35.4979 36.1988 35.8839 35.3987C36.1239 34.9008 36.3632 34.4026 36.6016 33.904C36.7095 33.6796 36.8173 33.4553 36.9284 33.2242C37.0707 32.9268 37.0707 32.9268 37.216 32.6234C37.4549 32.1636 37.4549 32.1636 37.7458 31.8727C38.1364 31.8476 38.5283 31.8415 38.9197 31.8443C39.155 31.8452 39.3903 31.8461 39.6328 31.8471C39.8801 31.8495 40.1274 31.852 40.3822 31.8545C40.6306 31.8558 40.8791 31.8571 41.135 31.8585C41.7507 31.8619 42.3665 31.8671 42.9822 31.8727C42.5463 33.3019 41.9577 34.5982 41.2981 35.9329C41.1887 36.1565 41.0793 36.3801 40.9666 36.6105C40.6092 37.3408 40.2502 38.0704 39.8913 38.8C39.6437 39.3052 39.3962 39.8105 39.1489 40.3159C38.7692 41.0916 38.3895 41.8673 38.0094 42.6428C36.7319 45.249 35.4653 47.8604 34.2004 50.4727C33.9981 50.8902 33.7958 51.3078 33.5934 51.7253C33.135 52.6713 32.6768 53.6174 32.2186 54.5636C31.7386 54.5636 31.2586 54.5636 30.7641 54.5636C30.6224 54.2801 30.4808 53.9966 30.3349 53.7046C29.4184 51.8707 28.5016 50.037 27.5811 48.2052C25.2975 43.6606 23.038 39.1081 20.8682 34.5076C20.6741 34.1011 20.4689 33.6997 20.2543 33.3036C20.0005 32.7454 20.0005 32.7454 20.0005 31.8727Z" fill="white"/>
</svg>
