<svg width="60" height="60" viewBox="0 0 60 60" fill="none" xmlns="http://www.w3.org/2000/svg">
<rect width="60" height="60" rx="30" fill="#222222"/>
<g clip-path="url(#clip0_32_1563)">
<path d="M43.3334 30.0001C43.3334 37.3639 37.3638 43.3334 30 43.3334M43.3334 30.0001C43.3334 22.6363 37.3638 16.6667 30 16.6667M43.3334 30.0001H16.6667M30 43.3334C22.6362 43.3334 16.6667 37.3639 16.6667 30.0001M30 43.3334C33.3351 39.6823 35.2304 34.944 35.3334 30.0001C35.2304 25.0561 33.3351 20.3179 30 16.6667M30 43.3334C26.665 39.6823 24.7697 34.944 24.6667 30.0001C24.7697 25.0561 26.665 20.3179 30 16.6667M16.6667 30.0001C16.6667 22.6363 22.6362 16.6667 30 16.6667" stroke="#FAFAFB" stroke-width="4" stroke-linecap="round" stroke-linejoin="round"/>
</g>
<defs>
<clipPath id="clip0_32_1563">
<rect width="32" height="32" fill="white" transform="translate(14 14)"/>
</clipPath>
</defs>
</svg>
