<svg width="18" height="18" viewBox="0 0 18 18" fill="none" xmlns="http://www.w3.org/2000/svg">
<path d="M5.67676 17.4258C8.51642 17.5506 11.5859 17.5191 14.1533 17.3301V17.3291C14.8322 17.2773 15.1966 17.24 15.4482 17.1836C15.6682 17.1343 15.7981 17.0723 15.998 16.9414V16.9404C16.5119 16.6012 16.8785 16.0769 17.1201 15.1963V15.1943C17.4258 14.1005 17.5 13.0199 17.5 9.01074C17.5 5.15347 17.4191 3.90867 17.1533 2.88477C16.8684 1.80263 16.3274 1.17 15.6172 0.898438C15.3947 0.814108 15.1543 0.761623 14.4697 0.705078L13.6211 0.645508C11.5853 0.516138 9.64306 0.475443 7.62988 0.513672L6.76172 0.535156C5.16966 0.581878 3.26935 0.706737 2.83105 0.783203L2.82812 0.78418L2.63086 0.824219C2.19172 0.930258 1.87668 1.13067 1.55078 1.50684L1.54785 1.51074L1.41016 1.67871C1.10449 2.08307 0.906112 2.58406 0.741211 3.45898V3.45996C0.557815 4.42901 0.5 5.6277 0.5 9.01074C0.500005 13.0277 0.592786 14.2876 0.905273 15.3193L0.904297 15.3203C1.08253 15.9048 1.32634 16.3219 1.625 16.6143C1.92015 16.9031 2.2969 17.0967 2.79004 17.1924L2.78906 17.1934C3.1999 17.2713 3.61264 17.3177 4.54785 17.3701L5.67676 17.4258ZM12.124 17.0518C10.8047 17.1093 8.44932 17.1206 6.81348 17.0752L6.16113 17.0518C4.57108 16.9847 3.60946 16.9294 2.98242 16.8311C2.32271 16.7275 1.97031 16.567 1.62988 16.2686C1.29126 15.9723 1.09704 15.6205 0.948242 15.1328L0.886719 14.915C0.620534 13.8953 0.556645 12.5904 0.556641 9.01074C0.556641 5.90898 0.603085 4.5701 0.790039 3.5957L0.878906 3.19629C1.02004 2.6374 1.14173 2.32936 1.41797 1.98828V1.9873C1.65541 1.69237 1.89633 1.46269 2.28613 1.31738C2.54791 1.2198 2.86247 1.16681 3.25684 1.12695L3.67871 1.09082C5.98765 0.912568 8.63697 0.856513 11.0664 0.926758H11.0684C12.0778 0.959502 13.0865 1.01106 13.8867 1.06738C14.2865 1.09552 14.6377 1.1249 14.9121 1.1543C15.1663 1.18152 15.405 1.21268 15.543 1.25488L15.5459 1.25684C15.9294 1.37742 16.2112 1.56098 16.499 1.86133L16.5 1.86035C16.8158 2.18761 16.988 2.5872 17.1279 3.1416C17.386 4.16419 17.4469 5.46747 17.4434 9.10352L17.4395 10.4014C17.4229 13.1604 17.3389 14.1265 17.0527 15.1064C16.9266 15.5421 16.7387 15.9168 16.459 16.2119C16.175 16.5115 15.8233 16.7011 15.418 16.8047H15.416C15.3164 16.8297 15.1393 16.8504 14.957 16.8682C14.7564 16.8877 14.4974 16.9083 14.2021 16.9297C13.6109 16.9725 12.8641 17.0167 12.126 17.0518H12.124Z" fill="#FAFAFB" stroke="#222222"/>
<path d="M7.43494 12.0632C7.46425 12.0489 7.52477 12.0163 7.64099 11.9412C7.92105 11.7601 8.42589 11.4043 9.42419 10.696C9.98694 10.2966 10.5105 9.92146 10.8998 9.64038C11.0945 9.49979 11.2551 9.38378 11.3695 9.29956C11.4269 9.25731 11.4712 9.22352 11.5023 9.19995C11.5114 9.19305 11.5187 9.18826 11.5238 9.18433C11.57 9.13609 11.6438 8.98518 11.6439 8.81519L11.6449 8.80933C11.6474 8.58154 11.5984 8.49227 11.5355 8.42261C11.5217 8.4114 11.4844 8.38147 11.4125 8.32495C11.3165 8.24957 11.1843 8.14839 11.0248 8.02808L9.83533 7.14917C8.55554 6.22346 7.95318 5.78677 7.64001 5.57886C7.56345 5.52803 7.51079 5.4954 7.474 5.47437C7.46633 5.46998 7.45907 5.46761 7.45349 5.4646C7.43441 5.46633 7.4113 5.46874 7.38904 5.47339C7.38821 5.47425 7.38699 5.4754 7.38611 5.47632C7.36683 5.4966 7.34426 5.5246 7.32166 5.55835C7.30327 5.58583 7.28873 5.61275 7.27673 5.63647L8.06775 6.22729L8.25427 6.36694L8.25623 6.3689C8.34929 6.43913 8.98177 6.89247 9.66443 7.3855L9.66541 7.38647C10.0049 7.63275 10.3221 7.86282 10.558 8.03491C10.6757 8.12078 10.7743 8.19348 10.8461 8.24683C10.8816 8.27328 10.9124 8.29609 10.9359 8.31421C10.9416 8.31862 10.9812 8.34998 11.015 8.38257L11.016 8.38159L11.017 8.38452C11.0198 8.38728 11.024 8.38858 11.0267 8.39136L11.0248 8.39331C11.0747 8.44439 11.1267 8.51537 11.1547 8.61108C11.1846 8.71374 11.1788 8.80983 11.1605 8.88452C11.129 9.01306 11.057 9.10058 11.0287 9.13354C10.9621 9.21096 10.8666 9.28976 10.7689 9.36597C10.5584 9.53017 10.183 9.79746 9.55505 10.241H9.55603C9.15348 10.5278 8.78546 10.7886 8.51599 10.9773C8.38141 11.0716 8.27 11.1481 8.19177 11.2019C8.15316 11.2284 8.1209 11.2505 8.09705 11.2664C8.08567 11.2739 8.07331 11.2826 8.06189 11.2898C8.05696 11.2929 8.04642 11.2987 8.03455 11.3054C8.0294 11.3083 8.01559 11.3159 7.99841 11.324C7.99014 11.3278 7.97347 11.3358 7.95154 11.3435C7.94735 11.345 7.92797 11.3515 7.8988 11.3582L7.7865 11.3718C7.53539 11.3718 7.40512 11.1978 7.3783 11.1599C7.33902 11.1044 7.31983 11.0538 7.31384 11.0369C7.29972 10.9967 7.29381 10.9631 7.29236 10.9548C7.28825 10.9313 7.28713 10.9113 7.2865 10.9041C7.28487 10.8854 7.28327 10.8652 7.28259 10.8494C7.28115 10.8153 7.27978 10.7691 7.27869 10.7146C7.27648 10.6039 7.27535 10.4454 7.2738 10.2527C7.27071 9.86646 7.26892 9.33447 7.26892 8.74976V5.6521C7.25328 5.68526 7.24395 5.71197 7.2406 5.72827L7.23767 5.73804L7.23083 5.90015C7.22607 6.03102 7.2225 6.21982 7.22009 6.47729C7.21528 6.99143 7.21559 7.76683 7.21912 8.87866L7.22791 11.8103L7.27478 11.8982C7.32169 11.9846 7.36572 12.0268 7.39294 12.0457C7.40959 12.0571 7.42247 12.0615 7.43494 12.0632Z" fill="#FAFAFB" stroke="#222222"/>
</svg>
